# AST/ASF file generated using VICON BodyLanguage
# -----------------------------------------------
:version 1.10
:name VICON
:units
  mass 1.0
  length 0.45
  angle deg
:documentation
   .ast/.asf automatically generated from VICON data using
   VICON BodyBuilder and BodyLanguage model FoxedUp or BRILLIANT.MOD
:root
   order TX TY TZ RX RY RZ
   axis XYZ
   position 0 0 0  
   orientation 0 0 0 
:bonedata
  begin
     id 1 
     name lhipjoint
     direction 0.561001 -0.76473 0.316963 
     length 2.4722 
     axis 0 0 0  XYZ
  end
  begin
     id 2 
     name lfemur
     direction 0.34202 -0.939693 0  
     length 7.59403  
     axis 0 0 20  XYZ
    dof rx ry rz
    limits (-160.0 20.0)
           (-70.0 70.0)
           (-60.0 70.0)
  end
  begin
     id 3 
     name ltibia
     direction 0.34202 -0.939693 0   
     length 7.89655   
     axis 0 0 20   XYZ
    dof rx
    limits (-10.0 170.0)
  end
  begin
     id 4 
     name lfoot
     direction 0.061296 -0.168409 0.98381   
     length 2.73287   
     axis -90 7.62852e-016 20   XYZ
    dof rx rz
    limits (-45.0 90.0)
           (-70.0 20.0)
  end
  begin
     id 5 
     name ltoes
     direction 1.53547e-011 -4.21984e-011 1   
     length 1.37057   
     axis -90 7.62852e-016 20   XYZ
    dof rx
    limits (-90.0 20.0)
  end
  begin
     id 6 
     name rhipjoint
     direction -0.559611 -0.765599 0.317323   
     length 2.46939  
     axis 0 0 0  XYZ 
  end
  begin
     id 7 
     name rfemur
     direction -0.34202 -0.939693 0   
     length 7.53712   
     axis 0 0 -20   XYZ
    dof rx ry rz
    limits (-160.0 20.0)
           (-70.0 70.0)
           (-70.0 60.0)
  end
  begin
     id 8 
     name rtibia
     direction -0.34202 -0.939693 0   
     length 8.12549   
     axis 0 0 -20   XYZ
    dof rx
    limits (-10.0 170.0)
 end
 begin
     id 9 
     name rfoot
     direction -0.066984 -0.184037 0.980634   
     length 2.67541  
     axis -90 -7.62852e-016 -20   XYZ
    dof rx rz
    limits (-45.0 90.0)
           (-20.0 70.0)
  end
  begin
     id 10 
     name rtoes
     direction -1.53549e-011 -4.21786e-011 1   
     length 1.34085   
     axis -90 -7.62852e-016 -20   XYZ
    dof rx
    limits (-90.0 20.0)
  end
  begin
     id 11 
     name lowerback
     direction -0.0522728 0.992594 -0.109658   
     length 2.05633   
     axis 0 0 0   XYZ
    dof rx ry rz
    limits (-20.0 45.0)
           (-30.0 30.0)
           (-30.0 30.0)
  end
  begin
     id 12 
     name upperback
     direction 0.00589338 0.999977 0.00335704   
     length 2.05845   
     axis 0 0 0   XYZ
    dof rx ry rz
    limits (-20.0 45.0)
           (-30.0 30.0)
           (-30.0 30.0)
  end
  begin
     id 13 
     name thorax
     direction 0.0292928 0.998059 0.0549487   
     length 2.09281   
     axis 0 0 0   XYZ
    dof rx ry rz
    limits (-20.0 45.0)
           (-30.0 30.0)
           (-30.0 30.0)
  end
  begin
     id 14 
     name lowerneck
     direction 0.0356368 0.980775 0.191858   
     length 1.84767   
     axis 0 0 0   XYZ
    dof rx ry rz
    limits (-20.0 45.0)
           (-30.0 30.0)
           (-30.0 30.0)
  end
  begin
     id 15 
     name upperneck
     direction -0.0227605 0.98931 -0.14404   
     length 1.89582   
     axis 0 0 0   XYZ
    dof rx ry rz
    limits (-20.0 45.0)
           (-30.0 30.0)
           (-30.0 30.0)
  end
  begin
     id 16
     name head
     direction -0.00932985 0.997511 -0.0698904  
     length 1.90213  
     axis 0 0 0   XYZ
    dof rx ry rz
    limits (-20.0 45.0)
           (-30.0 30.0)
           (-30.0 30.0)
  end
  begin
     id 17 
     name lclavicle
     direction 0.873442 0.479511 0.0846686  
     length 3.41193  
     axis 0 0 0   XYZ
    dof ry rz
    limits (-20.0 10.0)
           (0.0 20.0)
  end
  begin
     id 18 
     name lhumerus
     direction 1 -4.4897e-011 -5.62117e-018   
     length 5.59864   
     axis 180 -30 -90   XYZ
    dof rx ry rz
    limits (-60.0 90.0)
           (-90.0 90.0)
           (-90.0 90.0)
  end
  begin
     id 19
     name lradius
     direction 1 -4.48966e-011 -6.26295e-027   
     length 3.59542   
     axis 180 -30 -90   XYZ
    dof rx
    limits (-10.0 170.0)
  end
  begin
     id 20
     name lwrist
     direction 1 -4.48947e-011 -1.74096e-026   
     length 1.79771   
     axis 1.04567e-014 90 90   XYZ
    dof ry
    limits (-180.0 0.0)
 end
  begin
     id 21 
     name lhand
     direction 1 -4.49085e-011 -3.48469e-026   
     length 0.572014   
     axis 2.22196e-014 90 90   XYZ
    dof rx rz
    limits (-90.0 90.0)
           (-45.0 45.0)
  end
  begin
     id 22 
     name lfingers
     direction 1 -4.48884e-011 -6.96135e-026   
     length 0.461173   
     axis 4.44383e-014 90 90   XYZ
    dof rx
    limits (0.0 90.0)
  end
  begin
     id 23
     name lthumb
     direction 0.707107 -6.34976e-011 0.707107   
     length 0.662154   
     axis -90 45 -5.4397e-014   XYZ
    dof rx rz
    limits (-45.0 45.0)
           (-45.0 45.0)
  end
  begin
     id 24 
     name rclavicle
     direction -0.890242 0.443271 0.104786   
     length 3.46753  
     axis 0 0 0   XYZ 
    dof ry rz
    limits (-10.0 20.0)
           (-20.0 0.0)
  end
  begin
     id 25 
     name rhumerus
     direction -1 -4.48963e-011 -5.41723e-018  
     length 5.8094   
     axis 180 30 90   XYZ
    dof rx ry rz
    limits (-90.0 60.0)
           (-90.0 90.0)
           (-90.0 90.0)
  end
  begin
     id 26 
     name rradius
     direction -1 -4.48958e-011 -6.51059e-027   
     length 3.66953   
     axis 180 30 90   XYZ
    dof rx
    limits (-10.0 170.0)
  end
  begin
     id 27 
     name rwrist
     direction -1 -4.48975e-011 -1.74124e-026   
     length 1.83476   
     axis 1.04567e-014 -90 -90   XYZ
    dof ry
    limits (-180.0 0.0)
  end
  begin
     id 28
     name rhand
     direction -1 -4.49013e-011 -3.48326e-026   
     length 0.57843   
     axis 2.22196e-014 -90 -90   XYZ
    dof rx rz
    limits (-90.0 90.0)
           (-45.0 45.0)
  end
  begin
     id 29
     name rfingers
     direction -1 -4.49023e-011 -6.9669e-026   
     length 0.466345   
     axis 4.44383e-014 -90 -90   XYZ
    dof rx
    limits (0.0 90.0)
  end
  begin
     id 30
     name rthumb
     direction -0.707107 -6.34926e-011 0.707107   
     length 0.669581   
     axis -90 -45 5.4397e-014   XYZ
    dof rx rz
    limits (-45.0 45.0)
           (-45.0 45.0)
  end
:hierarchy
  begin
    root lhipjoint rhipjoint lowerback
    lhipjoint lfemur
    lfemur ltibia
    ltibia lfoot
    lfoot ltoes
    rhipjoint rfemur
    rfemur rtibia
    rtibia rfoot
    rfoot rtoes
    lowerback upperback
    upperback thorax
    thorax lowerneck lclavicle rclavicle
    lowerneck upperneck
    upperneck head
    lclavicle lhumerus
    lhumerus lradius
    lradius lwrist
    lwrist lhand lthumb
    lhand lfingers
    rclavicle rhumerus
    rhumerus rradius
    rradius rwrist
    rwrist rhand rthumb
    rhand rfingers
  end

#!OML:ASF H:\SkateBoarding\Project 1\Capture day 1\Session 1\Skater.ASF
:FULLY-SPECIFIED
:DEGREES
277
root 6.16177 19.3147 21.9197 -19.8439 78.3964 -29.5118
lowerback 13.5576 -3.49904 -8.84171
upperback 0.0653101 -6.02976 -0.715844
thorax -6.69825 -2.63644 5.3082
lowerneck -15.1137 -7.99263 -2.89458
upperneck 40.8026 -12.6351 5.67629
head 18.5792 -4.39634 0.77316
rclavicle 6.36111e-015 -1.27222e-014
rhumerus -54.9616 -9.04569 -85.3066
rradius 48.9238
rwrist -30.0956
rhand -27.3326 -12.9399
rfingers 7.12502
rthumb -0.741354 -42.9184
lclavicle 6.36111e-015 -1.27222e-014
lhumerus -27.1488 4.29827 78.1001
lradius 29.5179
lwrist 22.0115
lhand -28.2427 17.7894
lfingers 7.12502
lthumb -1.62034 47.763
rfemur -32.704 1.82995 22.5138
rtibia 50.9769
rfoot -29.803 12.6385
rtoes -4.93017
lfemur -20.1236 -5.36031 -5.67122
ltibia 44.8169
lfoot -45.4899 -4.15803
ltoes -15.4392
278
root 6.19034 19.3011 22.3365 -20.6024 78.7141 -30.0286
lowerback 13.4874 -3.38739 -8.79654
upperback -0.010497 -5.8703 -0.636954
thorax -6.76061 -2.55492 5.34008
lowerneck -14.9192 -8.14508 -3.09058
upperneck 40.9189 -12.7682 5.61907
head 18.6196 -4.48096 0.7637
rclavicle -3.1408e-014 -1.59028e-014
rhumerus -54.1355 -9.55163 -84.5815
rradius 46.915
rwrist -28.0739
rhand -26.4794 -12.7521
rfingers 7.12502
rthumb 0.0827344 -42.7318
lclavicle -3.1408e-014 -1.59028e-014
lhumerus -28.2658 3.44028 78.1496
lradius 29.9844
lwrist 22.3238
lhand -28.3575 17.417
lfingers 7.12502
lthumb -1.7312 47.3897
rfemur -32.4068 1.6495 22.4522
rtibia 50.9928
rfoot -30.5739 12.123
rtoes -5.97425
lfemur -20.2184 -5.30483 -5.77372
ltibia 45.1423
lfoot -45.2175 -4.28282
ltoes -15.7031
279
root 6.21585 19.2849 22.7526 -21.2364 78.9962 -30.3974
lowerback 13.4631 -3.25218 -8.74381
upperback -0.0772588 -5.68442 -0.597945
thorax -6.848 -2.45966 5.32446
lowerneck -14.7341 -8.31268 -3.26081
upperneck 41.0449 -12.9484 5.59229
head 18.6746 -4.57493 0.754068
rclavicle 1.74931e-014 -1.59028e-015
rhumerus -53.29 -10.0823 -83.8996
rradius 44.8796
rwrist -25.7218
rhand -25.6795 -12.361
rfingers 7.12502
rthumb 0.855273 -42.339
lclavicle 1.74931e-014 -1.59028e-015
lhumerus -29.3328 2.51177 78.1798
lradius 30.4342
lwrist 22.6063
lhand -28.4213 17.0527
lfingers 7.12502
lthumb -1.79279 47.0249
rfemur -32.1569 1.48852 22.373
rtibia 51.1044
rfoot -31.1978 11.6933
rtoes -6.8233
lfemur -20.3278 -5.24819 -5.8828
ltibia 45.5529
lfoot -44.953 -4.40814
ltoes -15.95
280
root 6.24022 19.281 23.1688 -21.7635 79.2247 -30.6362
lowerback 13.4755 -3.0984 -8.68649
upperback -0.129075 -5.4768 -0.581525
thorax -6.94564 -2.35388 5.28057
lowerneck -14.5661 -8.48502 -3.41158
upperneck 41.1751 -13.1515 5.58176
head 18.7399 -4.67192 0.743184
rclavicle 2.38542e-015 -2.38542e-014
rhumerus -52.4229 -10.6038 -83.2577
rradius 42.8488
rwrist -23.1418
rhand -24.9555 -11.8389
rfingers 7.12502
rthumb 1.55457 -41.813
lclavicle 2.38542e-015 -2.38542e-014
lhumerus -30.3499 1.57228 78.1885
lradius 30.8656
lwrist 22.8523
lhand -28.4176 16.7031
lfingers 7.12502
lthumb -1.78924 46.6754
rfemur -31.8902 1.36243 22.2942
rtibia 51.2543
rfoot -31.6683 11.4061
rtoes -7.42461
lfemur -20.4046 -5.17589 -5.98695
ltibia 46.0087
lfoot -44.6952 -4.54681
ltoes -16.1565
281
root 6.25971 19.2565 23.5824 -22.1793 79.3896 -30.744
lowerback 13.5135 -2.93241 -8.61965
upperback -0.16157 -5.25346 -0.583745
thorax -7.04138 -2.24157 5.20933
lowerneck -14.4175 -8.65402 -3.54152
upperneck 41.301 -13.3632 5.58259
head 18.8091 -4.76732 0.731207
rclavicle -3.57812e-015 -6.36111e-015
rhumerus -51.5329 -11.1101 -82.6598
rradius 40.8514
rwrist -20.4387
rhand -24.3443 -11.235
rfingers 7.12502
rthumb 2.14489 -41.204
lclavicle -3.57812e-015 -6.36111e-015
lhumerus -31.3187 0.652867 78.1617
lradius 31.2793
lwrist 23.0757
lhand -28.3455 16.361
lfingers 7.12502
lthumb -1.71961 46.3338
rfemur -31.7278 1.24993 22.2123
rtibia 51.5468
rfoot -31.9754 11.2556
rtoes -7.8218
lfemur -20.5347 -5.07679 -6.0659
ltibia 46.607
lfoot -44.4546 -4.72579
ltoes -16.3092
282
root 6.27678 19.228 23.9943 -22.5253 79.4863 -30.7663
lowerback 13.5775 -2.75909 -8.5237
upperback -0.181003 -5.01817 -0.600532
thorax -7.14256 -2.12479 5.10483
lowerneck -14.2811 -8.81607 -3.65524
upperneck 41.4199 -13.5738 5.59022
head 18.8772 -4.8591 0.719085
rclavicle -5.84427e-014 2.54444e-014
rhumerus -50.6452 -11.6011 -82.1011
rradius 38.9363
rwrist -17.7471
rhand -23.8252 -10.6261
rfingers 7.12502
rthumb 2.64615 -40.5895
lclavicle -5.84427e-014 2.54444e-014
lhumerus -32.2512 -0.223717 78.0945
lradius 31.6706
lwrist 23.2736
lhand -28.2121 16.0397
lfingers 7.12502
lthumb -1.59075 46.0135
rfemur -31.6034 1.14241 22.1485
rtibia 51.9135
rfoot -32.1464 11.2136
rtoes -8.0653
lfemur -20.669 -4.93664 -6.11573
ltibia 47.2862
lfoot -44.2226 -4.94586
ltoes -16.41
283
root 6.29219 19.1959 24.4045 -22.7777 79.5059 -30.6793
lowerback 13.6426 -2.58506 -8.42354
upperback -0.175066 -4.77909 -0.615813
thorax -7.21646 -2.00859 4.99678
lowerneck -14.1686 -8.95922 -3.75486
upperneck 41.5226 -13.7584 5.591
head 18.9378 -4.94012 0.705203
rclavicle -2.90226e-014 -2.38542e-014
rhumerus -49.7481 -12.0436 -81.5838
rradius 37.1406
rwrist -15.176
rhand -23.4189 -10.0474
rfingers 7.12502
rthumb 3.03857 -40.0055
lclavicle -2.90226e-014 -2.38542e-014
lhumerus -33.1401 -0.994415 77.9833
lradius 32.036
lwrist 23.4639
lhand -28.0342 15.7365
lfingers 7.12502
lthumb -1.41899 45.7115
rfemur -31.5234 1.03043 22.1096
rtibia 52.3829
rfoot -32.2237 11.273
rtoes -8.23309
lfemur -20.8095 -4.73931 -6.13832
ltibia 48.0731
lfoot -44.0238 -5.20974
ltoes -16.4787
284
root 6.30657 19.1608 24.813 -22.9611 79.4527 -30.5117
lowerback 13.719 -2.41216 -8.30315
upperback -0.158765 -4.53841 -0.629659
thorax -7.28609 -1.89297 4.87805
lowerneck -14.0631 -9.08493 -3.84812
upperneck 41.6112 -13.914 5.58056
head 18.987 -5.01144 0.690334
rclavicle -7.15625e-015 3.02153e-014
rhumerus -48.8802 -12.4383 -81.1078
rradius 35.5082
rwrist -12.8358
rhand -23.1569 -9.55066
rfingers 7.12502
rthumb 3.29161 -39.505
lclavicle -7.15625e-015 3.02153e-014
lhumerus -34.006 -1.65654 77.8287
lradius 32.3648
lwrist 23.6551
lhand -27.8186 15.441
lfingers 7.12502
lthumb -1.2107 45.4173
rfemur -31.4628 0.907031 22.1
rtibia 52.8939
rfoot -32.2236 11.3709
rtoes -8.41322
lfemur -20.924 -4.48466 -6.13342
ltibia 48.888
lfoot -43.8413 -5.48543
ltoes -16.5317
285
root 6.3207 19.1236 25.22 -23.078 79.3315 -30.2706
lowerback 13.7936 -2.24069 -8.16502
upperback -0.131191 -4.29558 -0.6431
thorax -7.34279 -1.77809 4.74783
lowerneck -13.9652 -9.19449 -3.93399
upperneck 41.6858 -14.0436 5.56054
head 19.0254 -5.07381 0.674453
rclavicle 1.43125e-014 -6.36111e-015
rhumerus -48.0533 -12.7818 -80.6847
rradius 34.0756
rwrist -10.8116
rhand -23.0332 -9.17721
rfingers 7.12502
rthumb 3.41104 -39.1297
lclavicle 1.43125e-014 -6.36111e-015
lhumerus -34.8431 -2.20697 77.6272
lradius 32.6433
lwrist 23.8374
lhand -27.5809 15.1648
lfingers 7.12502
lthumb -0.981178 45.1423
rfemur -31.4126 0.772111 22.1203
rtibia 53.4299
rfoot -32.1831 11.4871
rtoes -8.65355
lfemur -21.0007 -4.17325 -6.10334
ltibia 49.7012
lfoot -43.6752 -5.77462
ltoes -16.5673
286
root 6.33504 19.0847 25.626 -23.1336 79.1489 -29.9681
lowerback 13.8567 -2.07289 -8.01446
upperback -0.0944516 -4.0535 -0.653343
thorax -7.38213 -1.66525 4.61215
lowerneck -13.8786 -9.2873 -4.01458
upperneck 41.7499 -14.1452 5.52999
head 19.0557 -5.12664 0.65774
rclavicle -4.05521e-014 1.27222e-014
rhumerus -47.2757 -13.065 -80.3219
rradius 32.8685
rwrist -9.15147
rhand -23.0527 -8.95937
rfingers 7.12502
rthumb 3.39219 -38.9121
lclavicle -4.05521e-014 1.27222e-014
lhumerus -35.6466 -2.63732 77.3767
lradius 32.853
lwrist 24.011
lhand -27.3291 14.9067
lfingers 7.12502
lthumb -0.737901 44.8852
rfemur -31.3686 0.632539 22.1689
rtibia 53.977
rfoot -32.133 11.6087
rtoes -8.95972
lfemur -21.0338 -3.81012 -6.04982
ltibia 50.4866
lfoot -43.5318 -6.07277
ltoes -16.5932
287
root 6.34993 19.045 26.0314 -23.137 78.9157 -29.6195
lowerback 13.8997 -1.90922 -7.86232
upperback -0.0490795 -3.81364 -0.65801
thorax -7.39877 -1.5549 4.47964
lowerneck -13.8061 -9.36585 -4.08875
upperneck 41.8079 -14.2218 5.48548
head 19.0811 -5.171 0.637675
rclavicle 5.56597e-015 -1.90833e-014
rhumerus -46.5478 -13.2692 -80.0337
rradius 31.9006
rwrist -7.87735
rhand -23.1993 -8.9086
rfingers 7.12502
rthumb 3.25061 -38.8636
lclavicle 5.56597e-015 -1.90833e-014
lhumerus -36.4029 -2.93413 77.0732
lradius 32.968
lwrist 24.1531
lhand -27.0687 14.6602
lfingers 7.12502
lthumb -0.486397 44.6394
rfemur -31.3261 0.499729 22.2413
rtibia 54.5237
rfoot -32.0946 11.7431
rtoes -9.31036
lfemur -21.0197 -3.41047 -5.97497
ltibia 51.2228
lfoot -43.429 -6.37189
ltoes -16.6248
